<svg width="340" height="87" viewBox="0 0 340 87" fill="none" xmlns="http://www.w3.org/2000/svg">
<g filter="url(#filter0_d_14_60)">
<path d="M10 39.3482C10 20.9747 24.8947 6.08002 43.2682 6.08002H112.023C124.786 6.08002 136.656 12.6299 143.461 23.4275C157.929 46.3843 191.608 46.1598 206.366 23.3885C213.299 12.6909 225.279 6.08002 238.027 6.08002H296.732C315.105 6.08002 330 20.9747 330 39.3482C330 57.7217 315.105 72.6164 296.732 72.6164H43.2682C24.8947 72.6164 10 57.7217 10 39.3482Z" fill="#FAFAFF"/>
<path d="M10.5 39.3482C10.5 21.2508 25.1708 6.58002 43.2682 6.58002H112.023C124.614 6.58002 136.324 13.0418 143.038 23.6941C157.706 46.9693 191.835 46.7287 206.785 23.6604C213.628 13.1028 225.451 6.58002 238.027 6.58002H296.732C314.829 6.58002 329.5 21.2508 329.5 39.3482C329.5 57.4455 314.829 72.1164 296.732 72.1164H43.2682C25.1708 72.1164 10.5 57.4455 10.5 39.3482Z" stroke="#EEF0F2"/>
</g>
<defs>
<filter id="filter0_d_14_60" x="0" y="0.0800171" width="340" height="86.5363" filterUnits="userSpaceOnUse" color-interpolation-filters="sRGB">
<feFlood flood-opacity="0" result="BackgroundImageFix"/>
<feColorMatrix in="SourceAlpha" type="matrix" values="0 0 0 0 0 0 0 0 0 0 0 0 0 0 0 0 0 0 127 0" result="hardAlpha"/>
<feOffset dy="4"/>
<feGaussianBlur stdDeviation="5"/>
<feComposite in2="hardAlpha" operator="out"/>
<feColorMatrix type="matrix" values="0 0 0 0 0 0 0 0 0 0 0 0 0 0 0 0 0 0 0.25 0"/>
<feBlend mode="normal" in2="BackgroundImageFix" result="effect1_dropShadow_14_60"/>
<feBlend mode="normal" in="SourceGraphic" in2="effect1_dropShadow_14_60" result="shape"/>
</filter>
</defs>
</svg>
