<svg width="393" height="286" viewBox="0 0 393 286" fill="none" xmlns="http://www.w3.org/2000/svg">
<path d="M125.399 276.596C124.774 276.605 124.209 276.507 123.705 276.302C123.21 276.087 122.818 275.775 122.529 275.364C122.24 274.953 122.095 274.463 122.095 273.894C122.114 273.353 122.272 272.877 122.571 272.466C122.87 272.046 123.271 271.715 123.775 271.472C124.279 271.22 124.844 271.085 125.469 271.066C126.113 271.047 126.687 271.145 127.191 271.36C127.704 271.575 128.106 271.883 128.395 272.284C128.694 272.685 128.829 273.171 128.801 273.74C128.764 274.309 128.596 274.809 128.297 275.238C127.998 275.658 127.602 275.985 127.107 276.218C126.612 276.451 126.043 276.577 125.399 276.596ZM125.413 275.994C126.132 275.975 126.72 275.77 127.177 275.378C127.644 274.977 127.886 274.435 127.905 273.754C127.914 273.082 127.695 272.564 127.247 272.2C126.799 271.836 126.197 271.659 125.441 271.668C124.909 271.677 124.461 271.785 124.097 271.99C123.733 272.195 123.458 272.466 123.271 272.802C123.084 273.129 122.982 273.488 122.963 273.88C122.963 274.309 123.07 274.687 123.285 275.014C123.5 275.341 123.794 275.593 124.167 275.77C124.54 275.938 124.956 276.013 125.413 275.994ZM120.905 280.628C120.737 280.665 120.625 280.679 120.569 280.67C120.513 280.651 120.438 280.609 120.345 280.544C120.289 280.507 120.214 280.446 120.121 280.362C120.028 280.278 119.944 280.199 119.869 280.124C119.794 280.04 119.748 279.979 119.729 279.942C119.701 279.895 119.715 279.83 119.771 279.746C119.836 279.662 119.902 279.629 119.967 279.648C120.266 279.713 120.597 279.765 120.961 279.802C121.334 279.83 121.768 279.839 122.263 279.83C122.356 279.83 122.45 279.83 122.543 279.83C122.646 279.83 122.744 279.83 122.837 279.83C123.238 279.83 123.64 279.83 124.041 279.83C124.452 279.83 124.872 279.821 125.301 279.802L125.315 278.766C125.324 278.486 125.306 278.248 125.259 278.052C125.212 277.847 125.072 277.679 124.839 277.548C124.736 277.492 124.722 277.403 124.797 277.282C124.89 277.133 125.026 277.081 125.203 277.128C125.352 277.165 125.483 277.212 125.595 277.268C125.716 277.315 125.842 277.389 125.973 277.492C126.104 277.585 126.16 277.669 126.141 277.744C126.076 278.005 126.038 278.318 126.029 278.682C126.02 278.831 126.01 279.009 126.001 279.214C125.992 279.41 125.987 279.601 125.987 279.788C126.332 279.779 126.678 279.774 127.023 279.774C127.368 279.765 127.718 279.751 128.073 279.732C128.68 279.713 129.235 279.671 129.739 279.606C130.243 279.541 130.598 279.471 130.803 279.396C130.906 279.368 130.985 279.368 131.041 279.396C131.097 279.415 131.153 279.461 131.209 279.536C131.265 279.611 131.321 279.709 131.377 279.83C131.442 279.942 131.475 280.035 131.475 280.11C131.475 280.175 131.442 280.231 131.377 280.278C131.312 280.325 131.26 280.348 131.223 280.348C130.794 280.311 130.308 280.292 129.767 280.292C129.235 280.283 128.75 280.278 128.311 280.278C127.751 280.287 127.144 280.301 126.491 280.32C125.838 280.329 125.194 280.339 124.559 280.348C123.934 280.357 123.364 280.376 122.851 280.404C122.44 280.423 122.081 280.451 121.773 280.488C121.465 280.525 121.176 280.572 120.905 280.628ZM133.706 277.996C133.548 278.033 133.436 278.047 133.37 278.038C133.314 278.019 133.24 277.977 133.146 277.912C133.09 277.875 133.016 277.819 132.922 277.744C132.829 277.66 132.745 277.581 132.67 277.506C132.596 277.422 132.554 277.366 132.544 277.338C132.516 277.291 132.53 277.226 132.586 277.142C132.652 277.058 132.712 277.025 132.768 277.044C133.375 277.175 134.187 277.231 135.204 277.212C135.69 277.212 136.203 277.207 136.744 277.198C137.295 277.189 137.855 277.175 138.424 277.156L138.382 275.322C138.252 275.322 138.116 275.327 137.976 275.336C137.846 275.336 137.715 275.336 137.584 275.336C137.332 275.345 137.076 275.355 136.814 275.364C136.562 275.364 136.315 275.364 136.072 275.364C135.876 275.355 135.718 275.271 135.596 275.112C135.484 274.953 135.428 274.725 135.428 274.426V273.628C135.428 273.544 135.405 273.479 135.358 273.432C135.321 273.413 135.237 273.357 135.106 273.264C134.985 273.161 134.915 273.091 134.896 273.054C134.868 273.007 134.878 272.928 134.924 272.816C134.971 272.704 135.027 272.653 135.092 272.662C135.251 272.699 135.414 272.727 135.582 272.746C135.76 272.755 135.965 272.765 136.198 272.774C136.329 272.774 136.544 272.774 136.842 272.774C137.15 272.765 137.505 272.755 137.906 272.746C138.308 272.727 138.709 272.713 139.11 272.704C139.521 272.685 139.89 272.667 140.216 272.648C140.552 272.62 140.804 272.597 140.972 272.578C140.991 272.513 141.005 272.401 141.014 272.242C141.033 272.083 141.047 271.915 141.056 271.738C141.075 271.551 141.084 271.393 141.084 271.262C141.084 271.187 141.07 271.145 141.042 271.136C141.024 271.127 141.005 271.122 140.986 271.122C140.977 271.122 140.972 271.122 140.972 271.122C140.954 271.122 140.73 271.131 140.3 271.15C139.88 271.159 139.325 271.183 138.634 271.22C138.074 271.257 137.533 271.29 137.01 271.318C136.497 271.337 136.119 271.383 135.876 271.458C135.774 271.495 135.69 271.505 135.624 271.486C135.559 271.467 135.489 271.435 135.414 271.388C135.34 271.341 135.251 271.267 135.148 271.164C135.046 271.061 134.985 270.987 134.966 270.94C134.957 270.893 134.98 270.833 135.036 270.758C135.102 270.674 135.162 270.641 135.218 270.66C135.33 270.697 135.503 270.725 135.736 270.744C135.979 270.753 136.25 270.763 136.548 270.772C136.856 270.772 137.155 270.772 137.444 270.772C137.743 270.763 138 270.753 138.214 270.744C138.541 270.725 138.886 270.707 139.25 270.688C139.614 270.669 139.955 270.641 140.272 270.604C140.599 270.567 140.856 270.515 141.042 270.45C141.117 270.403 141.206 270.399 141.308 270.436L142.008 270.632C142.12 270.679 142.148 270.749 142.092 270.842C142.074 270.879 142.036 270.973 141.98 271.122C141.934 271.262 141.882 271.425 141.826 271.612C141.77 271.789 141.714 271.962 141.658 272.13C141.612 272.289 141.579 272.41 141.56 272.494C141.644 272.531 141.738 272.587 141.84 272.662C141.952 272.737 142.008 272.802 142.008 272.858C142.008 272.933 141.971 273.012 141.896 273.096C141.831 273.171 141.784 273.203 141.756 273.194C141.626 273.185 141.392 273.18 141.056 273.18C140.72 273.18 140.328 273.185 139.88 273.194C139.442 273.194 138.989 273.203 138.522 273.222C138.065 273.231 137.631 273.25 137.22 273.278C136.819 273.297 136.492 273.315 136.24 273.334V274.356C136.24 274.543 136.264 274.673 136.31 274.748C136.357 274.823 136.474 274.86 136.66 274.86C137.174 274.86 137.65 274.86 138.088 274.86C138.536 274.851 139.017 274.827 139.53 274.79C140.09 274.753 140.552 274.711 140.916 274.664C141.28 274.617 141.574 274.557 141.798 274.482C141.92 274.454 142.008 274.445 142.064 274.454C142.12 274.454 142.176 274.487 142.232 274.552C142.288 274.617 142.335 274.687 142.372 274.762C142.419 274.827 142.452 274.888 142.47 274.944C142.489 275.009 142.456 275.079 142.372 275.154C142.298 275.219 142.242 275.252 142.204 275.252C141.934 275.243 141.686 275.243 141.462 275.252C141.238 275.252 141.005 275.257 140.762 275.266C140.576 275.275 140.375 275.285 140.16 275.294C139.955 275.294 139.717 275.294 139.446 275.294H139.208L139.138 277.142L141.322 277.058C141.929 277.03 142.484 276.988 142.988 276.932C143.502 276.867 143.866 276.797 144.08 276.722C144.183 276.694 144.262 276.694 144.318 276.722C144.374 276.741 144.43 276.787 144.486 276.862C144.533 276.937 144.58 277.025 144.626 277.128C144.682 277.221 144.71 277.305 144.71 277.38C144.71 277.445 144.678 277.506 144.612 277.562C144.547 277.609 144.5 277.632 144.472 277.632C144.146 277.585 143.782 277.562 143.38 277.562C142.979 277.562 142.592 277.567 142.218 277.576C142.097 277.576 141.98 277.576 141.868 277.576C141.756 277.576 141.649 277.576 141.546 277.576C141.126 277.585 140.66 277.599 140.146 277.618C139.642 277.627 139.129 277.641 138.606 277.66C138.084 277.669 137.58 277.683 137.094 277.702C136.609 277.721 136.18 277.739 135.806 277.758C135.386 277.777 134.999 277.809 134.644 277.856C134.299 277.893 133.986 277.94 133.706 277.996ZM134.84 283.344C134.747 283.381 134.644 283.381 134.532 283.344C134.43 283.316 134.364 283.265 134.336 283.19C134.308 283.125 134.355 283.064 134.476 283.008C135.167 282.653 135.755 282.275 136.24 281.874C136.726 281.463 137.113 281.085 137.402 280.74C137.701 280.395 137.906 280.143 138.018 279.984C138.196 279.713 138.317 279.471 138.382 279.256C138.448 279.041 138.373 278.859 138.158 278.71C138.046 278.635 138.018 278.542 138.074 278.43C138.177 278.243 138.345 278.197 138.578 278.29C138.821 278.393 139.068 278.547 139.32 278.752C139.498 278.92 139.568 279.037 139.53 279.102C139.456 279.195 139.367 279.326 139.264 279.494C139.162 279.653 139.05 279.821 138.928 279.998C139.283 280.25 139.675 280.493 140.104 280.726C140.543 280.959 140.954 281.16 141.336 281.328C141.728 281.496 142.018 281.603 142.204 281.65C142.298 281.687 142.386 281.771 142.47 281.902C142.564 282.033 142.638 282.177 142.694 282.336C142.76 282.504 142.792 282.649 142.792 282.77C142.774 282.873 142.694 282.957 142.554 283.022C142.414 283.087 142.326 283.101 142.288 283.064C142.074 282.831 141.808 282.583 141.49 282.322C141.173 282.07 140.837 281.823 140.482 281.58C140.137 281.337 139.801 281.113 139.474 280.908C139.157 280.693 138.886 280.516 138.662 280.376C138.233 280.955 137.678 281.51 136.996 282.042C136.315 282.583 135.596 283.017 134.84 283.344ZM149.484 277.562C148.924 277.571 148.415 277.464 147.958 277.24C147.501 277.016 147.137 276.699 146.866 276.288C146.595 275.868 146.46 275.392 146.46 274.86C146.46 274.337 146.595 273.871 146.866 273.46C147.137 273.04 147.501 272.704 147.958 272.452C148.425 272.2 148.938 272.069 149.498 272.06C150.058 272.041 150.562 272.135 151.01 272.34C151.467 272.545 151.831 272.849 152.102 273.25C152.373 273.651 152.508 274.146 152.508 274.734C152.508 275.266 152.373 275.747 152.102 276.176C151.831 276.596 151.467 276.927 151.01 277.17C150.553 277.413 150.044 277.543 149.484 277.562ZM149.498 276.862C149.909 276.843 150.277 276.745 150.604 276.568C150.931 276.381 151.187 276.134 151.374 275.826C151.57 275.509 151.668 275.149 151.668 274.748C151.668 274.309 151.57 273.936 151.374 273.628C151.178 273.32 150.917 273.087 150.59 272.928C150.263 272.76 149.899 272.685 149.498 272.704C149.097 272.704 148.728 272.802 148.392 272.998C148.056 273.185 147.785 273.441 147.58 273.768C147.384 274.085 147.286 274.445 147.286 274.846C147.286 275.266 147.384 275.635 147.58 275.952C147.785 276.26 148.056 276.493 148.392 276.652C148.728 276.811 149.097 276.881 149.498 276.862ZM155.21 282.308C155.107 282.308 155.051 282.261 155.042 282.168C155.033 282.093 155.019 281.958 155 281.762C154.991 281.557 154.981 281.337 154.972 281.104C154.963 280.861 154.958 280.651 154.958 280.474V271.892C154.958 271.603 154.944 271.379 154.916 271.22C154.897 271.061 154.837 270.931 154.734 270.828C154.641 270.716 154.473 270.599 154.23 270.478C154.155 270.431 154.118 270.385 154.118 270.338C154.118 270.291 154.151 270.231 154.216 270.156C154.281 270.072 154.351 270.03 154.426 270.03C154.538 270.03 154.678 270.058 154.846 270.114C155.014 270.17 155.177 270.235 155.336 270.31C155.495 270.375 155.611 270.436 155.686 270.492C155.798 270.576 155.849 270.669 155.84 270.772C155.812 270.968 155.789 271.15 155.77 271.318C155.761 271.486 155.756 271.682 155.756 271.906V280.446C155.756 280.595 155.747 280.777 155.728 280.992C155.719 281.197 155.695 281.403 155.658 281.608C155.621 281.804 155.565 281.967 155.49 282.098C155.425 282.238 155.331 282.308 155.21 282.308ZM171.305 282.308C171.203 282.308 171.147 282.261 171.137 282.168C171.128 282.093 171.114 281.958 171.095 281.762C171.086 281.557 171.077 281.337 171.067 281.104C171.058 280.861 171.053 280.651 171.053 280.474V271.892C171.053 271.603 171.039 271.379 171.011 271.22C170.993 271.061 170.932 270.931 170.829 270.828C170.736 270.716 170.568 270.599 170.325 270.478C170.251 270.431 170.213 270.385 170.213 270.338C170.213 270.291 170.246 270.231 170.311 270.156C170.377 270.072 170.447 270.03 170.521 270.03C170.633 270.03 170.773 270.058 170.941 270.114C171.109 270.17 171.273 270.235 171.431 270.31C171.59 270.375 171.707 270.436 171.781 270.492C171.893 270.576 171.945 270.669 171.935 270.772C171.907 270.968 171.884 271.15 171.865 271.318C171.856 271.486 171.851 271.682 171.851 271.906V275.728C172.346 275.728 172.78 275.691 173.153 275.616C173.536 275.532 173.802 275.467 173.951 275.42C174.054 275.383 174.129 275.378 174.175 275.406C174.222 275.434 174.264 275.476 174.301 275.532C174.348 275.597 174.395 275.695 174.441 275.826C174.497 275.957 174.525 276.055 174.525 276.12C174.525 276.176 174.493 276.227 174.427 276.274C174.371 276.321 174.329 276.344 174.301 276.344C173.956 276.297 173.597 276.274 173.223 276.274C172.859 276.265 172.491 276.26 172.117 276.26C172.071 276.26 172.024 276.26 171.977 276.26C171.94 276.26 171.898 276.26 171.851 276.26V280.446C171.851 280.595 171.842 280.777 171.823 280.992C171.814 281.197 171.791 281.403 171.753 281.608C171.716 281.804 171.66 281.967 171.585 282.098C171.52 282.238 171.427 282.308 171.305 282.308ZM164.291 278.738C164.095 278.747 163.932 278.654 163.801 278.458C163.68 278.253 163.619 278.015 163.619 277.744V273.824C163.619 273.665 163.615 273.507 163.605 273.348C163.605 273.18 163.587 273.017 163.549 272.858C163.512 272.727 163.437 272.592 163.325 272.452C163.213 272.312 163.101 272.205 162.989 272.13C162.905 272.055 162.891 271.971 162.947 271.878C163.069 271.719 163.204 271.659 163.353 271.696C163.484 271.724 163.652 271.794 163.857 271.906C164.063 272.018 164.226 272.121 164.347 272.214C164.478 272.326 164.534 272.424 164.515 272.508C164.497 272.639 164.478 272.83 164.459 273.082C164.441 273.325 164.431 273.539 164.431 273.726V277.562C164.431 277.683 164.455 277.777 164.501 277.842C164.557 277.898 164.679 277.921 164.865 277.912C165.379 277.903 165.906 277.851 166.447 277.758C166.989 277.665 167.507 277.553 168.001 277.422C168.505 277.291 168.939 277.165 169.303 277.044C169.677 276.913 169.943 276.811 170.101 276.736C170.269 276.661 170.367 276.689 170.395 276.82C170.433 276.941 170.377 277.058 170.227 277.17C170.106 277.245 169.882 277.347 169.555 277.478C169.238 277.609 168.855 277.749 168.407 277.898C167.969 278.038 167.502 278.173 167.007 278.304C166.513 278.425 166.027 278.528 165.551 278.612C165.085 278.696 164.665 278.738 164.291 278.738ZM178.906 275.042C178.71 275.042 178.552 274.977 178.43 274.846C178.318 274.706 178.262 274.487 178.262 274.188V273.488C178.262 273.432 178.253 273.381 178.234 273.334C178.225 273.287 178.197 273.245 178.15 273.208C178.057 273.161 177.964 273.105 177.87 273.04C177.777 272.965 177.721 272.905 177.702 272.858C177.665 272.811 177.679 272.737 177.744 272.634C177.81 272.522 177.87 272.475 177.926 272.494C178.085 272.531 178.248 272.559 178.416 272.578C178.594 272.597 178.799 272.606 179.032 272.606C179.154 272.606 179.368 272.606 179.676 272.606C179.984 272.597 180.339 272.587 180.74 272.578C181.142 272.559 181.543 272.541 181.944 272.522C182.355 272.503 182.724 272.485 183.05 272.466C183.386 272.438 183.638 272.405 183.806 272.368C183.825 272.312 183.839 272.209 183.848 272.06C183.867 271.911 183.881 271.747 183.89 271.57C183.909 271.393 183.918 271.243 183.918 271.122C183.918 271.047 183.904 271.005 183.876 270.996C183.858 270.987 183.839 270.982 183.82 270.982C183.811 270.982 183.806 270.982 183.806 270.982C183.797 270.982 183.568 270.991 183.12 271.01C182.672 271.029 182.122 271.057 181.468 271.094C180.908 271.131 180.367 271.169 179.844 271.206C179.331 271.234 178.953 271.276 178.71 271.332C178.608 271.36 178.524 271.369 178.458 271.36C178.393 271.341 178.323 271.309 178.248 271.262C178.174 271.215 178.085 271.141 177.982 271.038C177.88 270.935 177.819 270.861 177.8 270.814C177.782 270.767 177.8 270.707 177.856 270.632C177.922 270.557 177.987 270.529 178.052 270.548C178.164 270.585 178.337 270.613 178.57 270.632C178.813 270.641 179.084 270.651 179.382 270.66C179.69 270.66 179.989 270.66 180.278 270.66C180.577 270.651 180.834 270.641 181.048 270.632C181.366 270.613 181.706 270.595 182.07 270.576C182.444 270.557 182.794 270.529 183.12 270.492C183.447 270.445 183.699 270.394 183.876 270.338C183.951 270.291 184.04 270.287 184.142 270.324L184.842 270.506C184.954 270.553 184.982 270.623 184.926 270.716C184.908 270.753 184.87 270.842 184.814 270.982C184.768 271.113 184.716 271.267 184.66 271.444C184.604 271.621 184.548 271.789 184.492 271.948C184.446 272.107 184.413 272.228 184.394 272.312C184.478 272.349 184.572 272.405 184.674 272.48C184.786 272.555 184.842 272.615 184.842 272.662C184.842 272.737 184.805 272.816 184.73 272.9C184.665 272.984 184.618 273.021 184.59 273.012C184.46 272.993 184.226 272.984 183.89 272.984C183.554 272.975 183.162 272.975 182.714 272.984C182.276 272.993 181.823 273.007 181.356 273.026C180.89 273.045 180.456 273.068 180.054 273.096C179.653 273.115 179.326 273.133 179.074 273.152V274.118C179.074 274.305 179.098 274.426 179.144 274.482C179.191 274.529 179.308 274.552 179.494 274.552C179.886 274.552 180.232 274.552 180.53 274.552C180.829 274.543 181.128 274.529 181.426 274.51C181.734 274.491 182.08 274.473 182.462 274.454C183.013 274.417 183.452 274.375 183.778 274.328C184.105 274.281 184.39 274.221 184.632 274.146C184.754 274.109 184.842 274.095 184.898 274.104C184.954 274.104 185.01 274.141 185.066 274.216C185.178 274.337 185.258 274.473 185.304 274.622C185.314 274.678 185.281 274.739 185.206 274.804C185.132 274.869 185.076 274.902 185.038 274.902C184.618 274.893 184.203 274.897 183.792 274.916C183.391 274.925 183.004 274.935 182.63 274.944C182.574 274.944 182.514 274.949 182.448 274.958C182.392 274.958 182.336 274.958 182.28 274.958C181.748 274.977 181.188 274.995 180.6 275.014C180.012 275.033 179.448 275.042 178.906 275.042ZM179.844 282.868C179.434 282.877 179.126 282.798 178.92 282.63C178.724 282.471 178.626 282.187 178.626 281.776V281.146C178.626 281.081 178.622 281.029 178.612 280.992C178.612 280.955 178.589 280.927 178.542 280.908C178.44 280.861 178.328 280.796 178.206 280.712C178.094 280.619 178.024 280.549 177.996 280.502C177.968 280.455 177.978 280.385 178.024 280.292C178.08 280.189 178.136 280.147 178.192 280.166C178.482 280.231 178.864 280.273 179.34 280.292C179.508 280.292 179.746 280.292 180.054 280.292C180.362 280.292 180.703 280.287 181.076 280.278C181.45 280.269 181.823 280.259 182.196 280.25C182.57 280.231 182.91 280.213 183.218 280.194C183.526 280.175 183.764 280.157 183.932 280.138C183.942 280.091 183.951 279.998 183.96 279.858C183.979 279.718 183.993 279.564 184.002 279.396C184.021 279.219 184.03 279.065 184.03 278.934C184.03 278.869 184.016 278.831 183.988 278.822C183.97 278.813 183.951 278.808 183.932 278.808L180.544 278.962C180.218 278.971 179.9 278.995 179.592 279.032C179.284 279.06 179.093 279.083 179.018 279.102C178.916 279.121 178.832 279.13 178.766 279.13C178.701 279.121 178.631 279.088 178.556 279.032C178.482 278.976 178.393 278.906 178.29 278.822C178.197 278.729 178.141 278.659 178.122 278.612C178.113 278.565 178.136 278.505 178.192 278.43C178.248 278.346 178.309 278.313 178.374 278.332C178.58 278.379 178.864 278.411 179.228 278.43C179.592 278.449 179.919 278.458 180.208 278.458C180.414 278.458 180.689 278.458 181.034 278.458C181.389 278.449 181.758 278.435 182.14 278.416C182.532 278.388 182.892 278.36 183.218 278.332C183.554 278.295 183.806 278.248 183.974 278.192C184.012 278.173 184.044 278.159 184.072 278.15C184.11 278.141 184.152 278.145 184.198 278.164L184.842 278.332C184.945 278.369 184.973 278.439 184.926 278.542C184.908 278.598 184.866 278.729 184.8 278.934C184.744 279.13 184.688 279.335 184.632 279.55C184.576 279.765 184.534 279.928 184.506 280.04C184.581 280.087 184.674 280.143 184.786 280.208C184.908 280.273 184.968 280.334 184.968 280.39C184.968 280.465 184.931 280.544 184.856 280.628C184.791 280.712 184.744 280.749 184.716 280.74C184.604 280.731 184.39 280.726 184.072 280.726C183.755 280.717 183.386 280.712 182.966 280.712C182.546 280.712 182.108 280.717 181.65 280.726C181.202 280.735 180.782 280.749 180.39 280.768C179.998 280.787 179.676 280.805 179.424 280.824V281.678C179.424 281.958 179.457 282.131 179.522 282.196C179.588 282.261 179.714 282.299 179.9 282.308C179.928 282.308 179.989 282.308 180.082 282.308C180.269 282.308 180.521 282.308 180.838 282.308C181.165 282.308 181.52 282.303 181.902 282.294C182.285 282.285 182.654 282.271 183.008 282.252C183.494 282.233 183.886 282.201 184.184 282.154C184.483 282.117 184.74 282.061 184.954 281.986C185.066 281.939 185.15 281.925 185.206 281.944C185.262 281.963 185.323 282 185.388 282.056C185.444 282.121 185.5 282.201 185.556 282.294C185.612 282.387 185.645 282.457 185.654 282.504C185.664 282.569 185.631 282.639 185.556 282.714C185.482 282.789 185.43 282.826 185.402 282.826C185.02 282.807 184.684 282.798 184.394 282.798C184.105 282.798 183.802 282.798 183.484 282.798C183.4 282.798 183.312 282.798 183.218 282.798C183.134 282.798 183.046 282.798 182.952 282.798C182.476 282.798 181.954 282.807 181.384 282.826C180.815 282.854 180.302 282.868 179.844 282.868ZM176.274 277.45C176.181 277.45 176.078 277.408 175.966 277.324C175.92 277.287 175.85 277.231 175.756 277.156C175.672 277.072 175.593 276.993 175.518 276.918C175.444 276.834 175.397 276.778 175.378 276.75C175.36 276.703 175.369 276.643 175.406 276.568C175.453 276.493 175.509 276.456 175.574 276.456C175.845 276.503 176.167 276.545 176.54 276.582C176.923 276.61 177.399 276.624 177.968 276.624C178.314 276.624 178.748 276.619 179.27 276.61C179.802 276.591 180.367 276.573 180.964 276.554C181.571 276.535 182.159 276.517 182.728 276.498C183.307 276.47 183.816 276.442 184.254 276.414C184.497 276.395 184.772 276.377 185.08 276.358C185.398 276.33 185.696 276.297 185.976 276.26C186.256 276.223 186.466 276.19 186.606 276.162C186.765 276.125 186.872 276.097 186.928 276.078C186.994 276.059 187.05 276.05 187.096 276.05C187.162 276.05 187.236 276.106 187.32 276.218C187.367 276.293 187.414 276.381 187.46 276.484C187.516 276.577 187.544 276.657 187.544 276.722C187.544 276.806 187.507 276.871 187.432 276.918C187.367 276.965 187.325 276.988 187.306 276.988C187.148 276.969 186.961 276.96 186.746 276.96C186.532 276.951 186.322 276.946 186.116 276.946C185.92 276.937 185.757 276.932 185.626 276.932C185.402 276.932 185.094 276.937 184.702 276.946C184.32 276.955 183.89 276.969 183.414 276.988C182.938 276.997 182.453 277.011 181.958 277.03C181.464 277.049 180.988 277.067 180.53 277.086C180.082 277.105 179.69 277.123 179.354 277.142C179.028 277.151 178.79 277.161 178.64 277.17C178.36 277.179 178.076 277.203 177.786 277.24C177.497 277.268 177.236 277.301 177.002 277.338C176.778 277.366 176.624 277.389 176.54 277.408C176.503 277.417 176.461 277.427 176.414 277.436C176.368 277.445 176.321 277.45 176.274 277.45ZM196.302 276.19C195.788 276.199 195.317 276.106 194.888 275.91C194.458 275.705 194.118 275.415 193.866 275.042C193.614 274.669 193.488 274.23 193.488 273.726C193.488 273.25 193.614 272.825 193.866 272.452C194.127 272.069 194.472 271.766 194.902 271.542C195.331 271.309 195.802 271.187 196.316 271.178C196.829 271.159 197.3 271.248 197.73 271.444C198.159 271.631 198.504 271.906 198.766 272.27C199.027 272.634 199.158 273.082 199.158 273.614C199.158 274.09 199.022 274.524 198.752 274.916C198.49 275.299 198.145 275.602 197.716 275.826C197.286 276.05 196.815 276.171 196.302 276.19ZM197.716 282.812C197.305 282.821 196.997 282.733 196.792 282.546C196.596 282.369 196.498 282.07 196.498 281.65V280.908C196.498 280.796 196.47 280.721 196.414 280.684C196.339 280.637 196.241 280.572 196.12 280.488C196.008 280.395 195.928 280.325 195.882 280.278C195.844 280.241 195.854 280.175 195.91 280.082C195.966 279.979 196.022 279.933 196.078 279.942C196.404 280.017 196.787 280.059 197.226 280.068C197.384 280.077 197.608 280.082 197.898 280.082C198.196 280.073 198.528 280.063 198.892 280.054C199.265 280.035 199.634 280.021 199.998 280.012C200.362 279.993 200.693 279.975 200.992 279.956C201.3 279.928 201.533 279.905 201.692 279.886C201.701 279.83 201.715 279.718 201.734 279.55C201.752 279.373 201.771 279.186 201.79 278.99C201.808 278.785 201.818 278.617 201.818 278.486C201.818 278.421 201.804 278.383 201.776 278.374C201.757 278.365 201.738 278.36 201.72 278.36L198.36 278.514C198.005 278.533 197.716 278.551 197.492 278.57C197.268 278.589 197.062 278.617 196.876 278.654C196.773 278.673 196.689 278.682 196.624 278.682C196.558 278.673 196.488 278.645 196.414 278.598C196.339 278.551 196.25 278.486 196.148 278.402C196.045 278.309 195.984 278.239 195.966 278.192C195.956 278.145 195.98 278.085 196.036 278.01C196.092 277.926 196.152 277.893 196.218 277.912C196.32 277.94 196.479 277.963 196.694 277.982C196.908 278.001 197.142 278.015 197.394 278.024C197.655 278.024 197.893 278.019 198.108 278.01C198.369 278.001 198.677 277.991 199.032 277.982C199.396 277.963 199.76 277.945 200.124 277.926C200.488 277.907 200.814 277.884 201.104 277.856C201.402 277.819 201.622 277.777 201.762 277.73C201.762 277.73 201.766 277.73 201.776 277.73C201.804 277.711 201.832 277.702 201.86 277.702C201.897 277.693 201.939 277.693 201.986 277.702L202.63 277.898C202.732 277.935 202.76 278.005 202.714 278.108C202.695 278.155 202.662 278.253 202.616 278.402C202.578 278.542 202.536 278.705 202.49 278.892C202.443 279.079 202.396 279.256 202.35 279.424C202.312 279.592 202.284 279.718 202.266 279.802C202.34 279.839 202.434 279.895 202.546 279.97C202.667 280.035 202.728 280.096 202.728 280.152C202.728 280.227 202.69 280.306 202.616 280.39C202.55 280.474 202.504 280.511 202.476 280.502C202.364 280.493 202.154 280.488 201.846 280.488C201.538 280.479 201.174 280.479 200.754 280.488C200.343 280.488 199.914 280.497 199.466 280.516C199.027 280.525 198.616 280.539 198.234 280.558C197.851 280.577 197.538 280.595 197.296 280.614V281.566C197.296 281.874 197.333 282.065 197.408 282.14C197.492 282.215 197.627 282.252 197.814 282.252C197.842 282.252 197.902 282.252 197.996 282.252C198.182 282.252 198.43 282.252 198.738 282.252C199.055 282.252 199.396 282.247 199.76 282.238C200.133 282.229 200.497 282.215 200.852 282.196C201.337 282.168 201.729 282.131 202.028 282.084C202.326 282.037 202.583 281.977 202.798 281.902C202.91 281.855 202.994 281.841 203.05 281.86C203.106 281.879 203.166 281.921 203.232 281.986C203.288 282.042 203.344 282.112 203.4 282.196C203.456 282.289 203.488 282.364 203.498 282.42C203.507 282.476 203.474 282.541 203.4 282.616C203.325 282.691 203.274 282.728 203.246 282.728C202.76 282.709 202.345 282.7 202 282.7C201.654 282.709 201.253 282.723 200.796 282.742C200.32 282.761 199.802 282.775 199.242 282.784C198.682 282.793 198.173 282.803 197.716 282.812ZM196.316 275.56C196.876 275.541 197.347 275.359 197.73 275.014C198.122 274.669 198.318 274.202 198.318 273.614C198.318 272.998 198.117 272.536 197.716 272.228C197.324 271.911 196.852 271.761 196.302 271.78C195.732 271.817 195.256 272.009 194.874 272.354C194.491 272.699 194.3 273.152 194.3 273.712C194.3 274.328 194.491 274.795 194.874 275.112C195.266 275.429 195.746 275.579 196.316 275.56ZM202.014 277.1C201.93 277.1 201.878 277.053 201.86 276.96C201.841 276.867 201.822 276.731 201.804 276.554C201.794 276.367 201.79 276.176 201.79 275.98C201.79 275.784 201.79 275.625 201.79 275.504V271.85C201.79 271.57 201.776 271.351 201.748 271.192C201.729 271.033 201.668 270.898 201.566 270.786C201.472 270.674 201.314 270.553 201.09 270.422C200.996 270.357 200.973 270.273 201.02 270.17C201.104 270.03 201.216 269.96 201.356 269.96C201.496 269.96 201.682 270.011 201.916 270.114C202.149 270.217 202.34 270.315 202.49 270.408C202.536 270.436 202.578 270.473 202.616 270.52C202.653 270.567 202.667 270.618 202.658 270.674C202.63 270.833 202.611 270.991 202.602 271.15C202.592 271.309 202.588 271.486 202.588 271.682V273.992C203.064 273.992 203.46 273.959 203.778 273.894C204.095 273.819 204.333 273.759 204.492 273.712C204.594 273.675 204.669 273.67 204.716 273.698C204.762 273.726 204.804 273.773 204.842 273.838C204.879 273.894 204.921 273.987 204.968 274.118C205.014 274.239 205.038 274.328 205.038 274.384C205.038 274.44 205.005 274.491 204.94 274.538C204.884 274.585 204.842 274.608 204.814 274.608C204.44 274.571 204.076 274.547 203.722 274.538C203.367 274.519 202.989 274.51 202.588 274.51V275.406C202.588 275.593 202.574 275.821 202.546 276.092C202.518 276.353 202.462 276.587 202.378 276.792C202.294 276.997 202.172 277.1 202.014 277.1ZM209.391 277.562C208.84 277.571 208.331 277.464 207.865 277.24C207.407 277.016 207.043 276.699 206.773 276.288C206.502 275.868 206.367 275.392 206.367 274.86C206.367 274.337 206.502 273.871 206.773 273.46C207.043 273.04 207.407 272.704 207.865 272.452C208.331 272.2 208.845 272.069 209.405 272.06C209.965 272.041 210.469 272.135 210.917 272.34C211.374 272.545 211.738 272.849 212.009 273.25C212.279 273.651 212.415 274.146 212.415 274.734C212.415 275.266 212.279 275.747 212.009 276.176C211.738 276.596 211.374 276.927 210.917 277.17C210.459 277.413 209.951 277.543 209.391 277.562ZM209.405 276.862C209.815 276.843 210.184 276.745 210.511 276.568C210.837 276.381 211.094 276.134 211.281 275.826C211.477 275.509 211.575 275.149 211.575 274.748C211.575 274.309 211.477 273.936 211.281 273.628C211.085 273.32 210.823 273.087 210.497 272.928C210.17 272.76 209.806 272.685 209.405 272.704C209.003 272.704 208.635 272.802 208.299 272.998C207.963 273.185 207.692 273.441 207.487 273.768C207.291 274.085 207.193 274.445 207.193 274.846C207.193 275.266 207.291 275.635 207.487 275.952C207.692 276.26 207.963 276.493 208.299 276.652C208.635 276.811 209.003 276.881 209.405 276.862ZM214.977 282.308C214.874 282.308 214.818 282.261 214.809 282.168C214.799 282.093 214.785 281.958 214.767 281.762C214.757 281.557 214.748 281.337 214.739 281.104C214.729 280.861 214.725 280.651 214.725 280.474V271.892C214.725 271.603 214.711 271.379 214.683 271.22C214.664 271.061 214.603 270.931 214.501 270.828C214.407 270.716 214.239 270.599 213.997 270.478C213.922 270.431 213.885 270.385 213.885 270.338C213.885 270.291 213.917 270.231 213.983 270.156C214.048 270.072 214.118 270.03 214.193 270.03C214.305 270.03 214.445 270.058 214.613 270.114C214.781 270.17 214.944 270.235 215.103 270.31C215.261 270.375 215.378 270.436 215.453 270.492C215.565 270.576 215.616 270.669 215.607 270.772C215.579 270.968 215.555 271.15 215.537 271.318C215.527 271.486 215.523 271.682 215.523 271.906V275.728C216.017 275.728 216.451 275.691 216.825 275.616C217.207 275.532 217.473 275.467 217.623 275.42C217.725 275.383 217.8 275.378 217.847 275.406C217.893 275.434 217.935 275.476 217.973 275.532C218.019 275.597 218.066 275.695 218.113 275.826C218.169 275.957 218.197 276.055 218.197 276.12C218.197 276.176 218.164 276.227 218.099 276.274C218.043 276.321 218.001 276.344 217.973 276.344C217.627 276.297 217.268 276.274 216.895 276.274C216.531 276.265 216.162 276.26 215.789 276.26C215.742 276.26 215.695 276.26 215.649 276.26C215.611 276.26 215.569 276.26 215.523 276.26V280.446C215.523 280.595 215.513 280.777 215.495 280.992C215.485 281.197 215.462 281.403 215.425 281.608C215.387 281.804 215.331 281.967 215.257 282.098C215.191 282.238 215.098 282.308 214.977 282.308ZM227.712 282.308C227.61 282.308 227.554 282.261 227.544 282.168C227.535 282.093 227.521 281.958 227.502 281.762C227.493 281.557 227.484 281.337 227.474 281.104C227.465 280.861 227.46 280.651 227.46 280.474V271.892C227.46 271.603 227.446 271.379 227.418 271.22C227.4 271.061 227.339 270.931 227.236 270.828C227.143 270.716 226.975 270.599 226.732 270.478C226.658 270.431 226.62 270.385 226.62 270.338C226.62 270.291 226.653 270.231 226.718 270.156C226.784 270.072 226.854 270.03 226.928 270.03C227.04 270.03 227.18 270.058 227.348 270.114C227.516 270.17 227.68 270.235 227.838 270.31C227.997 270.375 228.114 270.436 228.188 270.492C228.3 270.576 228.352 270.669 228.342 270.772C228.314 270.968 228.291 271.15 228.272 271.318C228.263 271.486 228.258 271.682 228.258 271.906V275.728C228.753 275.728 229.187 275.691 229.56 275.616C229.943 275.532 230.209 275.467 230.358 275.42C230.461 275.383 230.536 275.378 230.582 275.406C230.629 275.434 230.671 275.476 230.708 275.532C230.755 275.597 230.802 275.695 230.848 275.826C230.904 275.957 230.932 276.055 230.932 276.12C230.932 276.176 230.9 276.227 230.834 276.274C230.778 276.321 230.736 276.344 230.708 276.344C230.363 276.297 230.004 276.274 229.63 276.274C229.266 276.265 228.898 276.26 228.524 276.26C228.478 276.26 228.431 276.26 228.384 276.26C228.347 276.26 228.305 276.26 228.258 276.26V280.446C228.258 280.595 228.249 280.777 228.23 280.992C228.221 281.197 228.198 281.403 228.16 281.608C228.123 281.804 228.067 281.967 227.992 282.098C227.927 282.238 227.834 282.308 227.712 282.308ZM219.466 279.788C219.345 279.844 219.228 279.858 219.116 279.83C219.004 279.793 218.934 279.737 218.906 279.662C218.878 279.578 218.934 279.499 219.074 279.424C219.644 279.088 220.208 278.677 220.768 278.192C221.328 277.697 221.851 277.156 222.336 276.568C222.822 275.971 223.237 275.345 223.582 274.692C223.928 274.039 224.17 273.376 224.31 272.704C224.329 272.611 224.31 272.559 224.254 272.55C224.198 272.531 224.161 272.522 224.142 272.522C223.993 272.522 223.788 272.531 223.526 272.55C223.265 272.559 223.004 272.573 222.742 272.592C222.49 272.601 222.29 272.615 222.14 272.634C221.73 272.671 221.403 272.699 221.16 272.718C220.918 272.737 220.656 272.774 220.376 272.83C220.227 272.858 220.12 272.863 220.054 272.844C219.998 272.825 219.933 272.779 219.858 272.704C219.662 272.508 219.527 272.345 219.452 272.214C219.424 272.167 219.434 272.107 219.48 272.032C219.527 271.957 219.578 271.929 219.634 271.948C219.905 272.004 220.264 272.046 220.712 272.074C221.16 272.093 221.604 272.088 222.042 272.06C222.453 272.041 222.868 272.009 223.288 271.962C223.718 271.906 224.054 271.831 224.296 271.738C224.306 271.738 224.32 271.733 224.338 271.724C224.357 271.724 224.38 271.724 224.408 271.724C224.436 271.715 224.469 271.719 224.506 271.738L225.388 272.018C225.426 272.037 225.454 272.069 225.472 272.116C225.491 272.163 225.486 272.214 225.458 272.27L225.178 273.054C224.954 273.726 224.642 274.398 224.24 275.07C223.839 275.742 223.377 276.381 222.854 276.988C222.341 277.595 221.79 278.141 221.202 278.626C220.624 279.102 220.045 279.489 219.466 279.788ZM235.149 274.72C234.729 274.72 234.519 274.407 234.519 273.782V272.452C234.519 272.172 234.481 271.915 234.407 271.682C234.341 271.439 234.164 271.239 233.875 271.08C233.772 271.024 233.758 270.945 233.833 270.842C233.954 270.665 234.113 270.599 234.309 270.646C234.439 270.683 234.593 270.744 234.771 270.828C234.948 270.903 235.097 270.991 235.219 271.094C235.349 271.206 235.405 271.29 235.387 271.346C235.359 271.486 235.34 271.645 235.331 271.822C235.321 271.999 235.317 272.181 235.317 272.368V273.712C235.317 273.899 235.34 274.025 235.387 274.09C235.433 274.146 235.55 274.174 235.737 274.174C236.259 274.174 236.824 274.165 237.431 274.146C238.047 274.127 238.611 274.099 239.125 274.062C239.675 274.034 240.105 273.997 240.413 273.95C240.721 273.894 240.987 273.829 241.211 273.754C241.323 273.707 241.407 273.693 241.463 273.712C241.519 273.731 241.579 273.773 241.645 273.838C241.701 273.894 241.752 273.973 241.799 274.076C241.845 274.169 241.878 274.249 241.897 274.314C241.915 274.379 241.887 274.445 241.813 274.51C241.738 274.575 241.682 274.608 241.645 274.608C241.327 274.589 241.047 274.58 240.805 274.58C240.571 274.571 240.319 274.571 240.049 274.58C239.787 274.58 239.451 274.589 239.041 274.608C238.667 274.617 238.243 274.631 237.767 274.65C237.3 274.669 236.833 274.687 236.367 274.706C235.909 274.715 235.503 274.72 235.149 274.72ZM232.951 277.856C232.792 277.893 232.68 277.907 232.615 277.898C232.559 277.879 232.484 277.837 232.391 277.772C232.335 277.735 232.26 277.679 232.167 277.604C232.073 277.529 231.985 277.455 231.901 277.38C231.826 277.296 231.784 277.235 231.775 277.198C231.765 277.151 231.789 277.086 231.845 277.002C231.901 276.918 231.952 276.885 231.999 276.904C232.297 276.969 232.657 277.021 233.077 277.058C233.497 277.086 233.954 277.095 234.449 277.086C235.354 277.077 236.339 277.063 237.403 277.044C238.476 277.025 239.531 276.993 240.567 276.946C241.173 276.918 241.729 276.876 242.233 276.82C242.746 276.764 243.11 276.703 243.325 276.638C243.427 276.601 243.507 276.596 243.563 276.624C243.628 276.652 243.684 276.699 243.731 276.764C243.787 276.839 243.838 276.927 243.885 277.03C243.931 277.133 243.955 277.217 243.955 277.282C243.955 277.347 243.922 277.408 243.857 277.464C243.791 277.511 243.745 277.534 243.717 277.534C243.371 277.487 242.989 277.464 242.569 277.464C242.149 277.455 241.747 277.455 241.365 277.464C241.262 277.464 241.164 277.464 241.071 277.464C240.977 277.464 240.884 277.464 240.791 277.464C240.371 277.473 239.909 277.487 239.405 277.506C238.901 277.515 238.383 277.529 237.851 277.548C237.328 277.557 236.824 277.571 236.339 277.59C235.863 277.599 235.433 277.613 235.051 277.632C234.631 277.651 234.243 277.679 233.889 277.716C233.543 277.753 233.231 277.8 232.951 277.856ZM236.353 282.756C235.438 282.756 234.981 282.331 234.981 281.482V280.712C234.981 280.451 234.943 280.231 234.869 280.054C234.803 279.867 234.663 279.727 234.449 279.634C234.393 279.615 234.355 279.578 234.337 279.522C234.318 279.466 234.318 279.415 234.337 279.368C234.43 279.209 234.551 279.135 234.701 279.144C234.822 279.163 234.985 279.209 235.191 279.284C235.396 279.359 235.569 279.433 235.709 279.508C235.821 279.573 235.867 279.653 235.849 279.746C235.83 279.811 235.811 279.928 235.793 280.096C235.783 280.264 235.779 280.427 235.779 280.586V281.412C235.779 281.739 235.835 281.944 235.947 282.028C236.068 282.121 236.227 282.173 236.423 282.182C236.525 282.191 236.703 282.196 236.955 282.196C237.216 282.196 237.505 282.191 237.823 282.182C238.14 282.173 238.443 282.159 238.733 282.14C239.031 282.131 239.269 282.121 239.447 282.112C239.932 282.093 240.347 282.051 240.693 281.986C241.047 281.921 241.304 281.86 241.463 281.804C241.659 281.72 241.803 281.748 241.897 281.888C241.943 281.963 241.995 282.051 242.051 282.154C242.107 282.257 242.139 282.341 242.149 282.406C242.158 282.471 242.125 282.532 242.051 282.588C241.985 282.653 241.934 282.686 241.897 282.686C241.57 282.667 241.262 282.653 240.973 282.644C240.693 282.644 240.394 282.644 240.077 282.644C239.769 282.653 239.409 282.667 238.999 282.686C238.523 282.705 238.075 282.719 237.655 282.728C237.244 282.747 236.81 282.756 236.353 282.756ZM249.562 278.836C249.459 278.901 249.352 278.929 249.24 278.92C249.128 278.911 249.049 278.878 249.002 278.822C248.965 278.757 249.002 278.682 249.114 278.598C249.571 278.271 250.01 277.884 250.43 277.436C250.859 276.979 251.256 276.498 251.62 275.994C251.984 275.481 252.297 274.977 252.558 274.482C252.829 273.978 253.034 273.516 253.174 273.096C253.277 272.779 253.337 272.503 253.356 272.27C253.375 272.027 253.258 271.827 253.006 271.668C252.885 271.584 252.857 271.495 252.922 271.402C253.006 271.271 253.095 271.201 253.188 271.192C253.291 271.173 253.393 271.187 253.496 271.234C253.636 271.29 253.799 271.379 253.986 271.5C254.173 271.621 254.303 271.71 254.378 271.766C254.481 271.859 254.546 271.934 254.574 271.99C254.602 272.046 254.607 272.097 254.588 272.144C254.495 272.303 254.383 272.522 254.252 272.802C254.131 273.082 254 273.371 253.86 273.67C253.785 273.819 253.706 273.969 253.622 274.118C253.547 274.267 253.468 274.417 253.384 274.566C254 275.154 254.579 275.635 255.12 276.008C255.661 276.381 256.095 276.657 256.422 276.834C256.506 276.89 256.581 276.993 256.646 277.142C256.721 277.282 256.777 277.436 256.814 277.604C256.851 277.763 256.856 277.907 256.828 278.038C256.791 278.15 256.697 278.234 256.548 278.29C256.408 278.337 256.329 278.337 256.31 278.29C256.142 278.038 255.913 277.753 255.624 277.436C255.344 277.109 255.041 276.787 254.714 276.47C254.397 276.153 254.093 275.863 253.804 275.602C253.524 275.341 253.3 275.14 253.132 275C252.647 275.793 252.091 276.531 251.466 277.212C250.85 277.884 250.215 278.425 249.562 278.836ZM258.648 282.308C258.545 282.308 258.489 282.261 258.48 282.168C258.471 282.093 258.457 281.958 258.438 281.762C258.429 281.557 258.419 281.337 258.41 281.104C258.401 280.861 258.396 280.651 258.396 280.474V271.892C258.396 271.603 258.382 271.379 258.354 271.22C258.335 271.061 258.275 270.931 258.172 270.828C258.079 270.716 257.911 270.599 257.668 270.478C257.593 270.431 257.556 270.385 257.556 270.338C257.556 270.291 257.589 270.231 257.654 270.156C257.719 270.072 257.789 270.03 257.864 270.03C257.976 270.03 258.116 270.058 258.284 270.114C258.452 270.17 258.615 270.235 258.774 270.31C258.933 270.375 259.049 270.436 259.124 270.492C259.236 270.576 259.287 270.669 259.278 270.772C259.25 270.968 259.227 271.15 259.208 271.318C259.199 271.486 259.194 271.682 259.194 271.906V280.446C259.194 280.595 259.185 280.777 259.166 280.992C259.157 281.197 259.133 281.403 259.096 281.608C259.059 281.804 259.003 281.967 258.928 282.098C258.863 282.238 258.769 282.308 258.648 282.308ZM262.167 278.71C262.055 278.766 261.934 278.785 261.803 278.766C261.672 278.747 261.584 278.705 261.537 278.64C261.49 278.565 261.532 278.481 261.663 278.388C261.99 278.22 262.354 277.982 262.755 277.674C263.156 277.366 263.567 277.007 263.987 276.596C264.407 276.185 264.804 275.747 265.177 275.28C265.55 274.813 265.872 274.342 266.143 273.866C266.423 273.381 266.624 272.909 266.745 272.452C266.773 272.359 266.768 272.307 266.731 272.298C266.703 272.279 266.675 272.27 266.647 272.27C266.638 272.27 266.633 272.27 266.633 272.27C266.418 272.27 266.148 272.284 265.821 272.312C265.494 272.34 265.224 272.363 265.009 272.382C264.608 272.419 264.267 272.452 263.987 272.48C263.716 272.508 263.432 272.545 263.133 272.592C262.844 272.639 262.629 272.606 262.489 272.494C262.274 272.317 262.134 272.167 262.069 272.046C262.05 271.999 262.06 271.939 262.097 271.864C262.144 271.78 262.2 271.743 262.265 271.752C262.536 271.799 262.876 271.831 263.287 271.85C263.698 271.869 264.122 271.869 264.561 271.85C264.972 271.831 265.382 271.803 265.793 271.766C266.204 271.719 266.53 271.645 266.773 271.542C266.848 271.514 266.922 271.514 266.997 271.542L267.795 271.864C267.832 271.883 267.86 271.911 267.879 271.948C267.907 271.985 267.907 272.037 267.879 272.102C267.851 272.139 267.804 272.223 267.739 272.354C267.683 272.475 267.627 272.606 267.571 272.746C267.515 272.877 267.468 272.979 267.431 273.054C267.132 273.698 266.764 274.319 266.325 274.916C265.896 275.504 265.434 276.05 264.939 276.554C264.454 277.049 263.968 277.483 263.483 277.856C262.998 278.22 262.559 278.505 262.167 278.71ZM270.329 279.452C270.245 279.452 270.194 279.405 270.175 279.312C270.156 279.219 270.138 279.074 270.119 278.878C270.11 278.673 270.105 278.463 270.105 278.248C270.105 278.033 270.105 277.865 270.105 277.744V271.85C270.105 271.57 270.091 271.351 270.063 271.192C270.044 271.033 269.988 270.898 269.895 270.786C269.802 270.674 269.643 270.553 269.419 270.422C269.316 270.347 269.293 270.263 269.349 270.17C269.433 270.03 269.54 269.96 269.671 269.96C269.811 269.96 269.998 270.011 270.231 270.114C270.474 270.217 270.67 270.315 270.819 270.408C270.931 270.473 270.982 270.562 270.973 270.674C270.945 270.833 270.926 270.991 270.917 271.15C270.908 271.309 270.903 271.486 270.903 271.682V274.538C271.398 274.538 271.799 274.505 272.107 274.44C272.415 274.365 272.648 274.305 272.807 274.258C272.91 274.221 272.984 274.216 273.031 274.244C273.078 274.272 273.12 274.319 273.157 274.384C273.194 274.44 273.236 274.533 273.283 274.664C273.33 274.785 273.353 274.874 273.353 274.93C273.353 274.986 273.32 275.037 273.255 275.084C273.199 275.131 273.157 275.154 273.129 275.154C272.746 275.117 272.373 275.093 272.009 275.084C271.654 275.065 271.286 275.056 270.903 275.056V277.646C270.903 277.777 270.894 277.945 270.875 278.15C270.866 278.346 270.842 278.547 270.805 278.752C270.768 278.948 270.712 279.116 270.637 279.256C270.562 279.387 270.46 279.452 270.329 279.452ZM266.353 282.728C265.886 282.728 265.541 282.607 265.317 282.364C265.093 282.121 264.981 281.785 264.981 281.356V280.432C264.981 280.133 264.953 279.905 264.897 279.746C264.841 279.587 264.692 279.457 264.449 279.354C264.393 279.335 264.356 279.298 264.337 279.242C264.328 279.186 264.328 279.135 264.337 279.088C264.402 278.901 264.524 278.822 264.701 278.85C264.85 278.869 265.018 278.92 265.205 279.004C265.392 279.079 265.555 279.158 265.695 279.242C265.816 279.317 265.868 279.391 265.849 279.466C265.84 279.531 265.826 279.648 265.807 279.816C265.788 279.984 265.779 280.147 265.779 280.306V281.286C265.779 281.613 265.835 281.837 265.947 281.958C266.068 282.07 266.227 282.135 266.423 282.154C266.535 282.163 266.712 282.168 266.955 282.168C267.207 282.168 267.482 282.163 267.781 282.154C268.08 282.145 268.369 282.135 268.649 282.126C268.938 282.117 269.172 282.107 269.349 282.098C269.834 282.07 270.245 282.023 270.581 281.958C270.926 281.893 271.178 281.837 271.337 281.79C271.542 281.725 271.687 281.753 271.771 281.874C271.818 281.949 271.869 282.037 271.925 282.14C271.981 282.243 272.014 282.327 272.023 282.392C272.032 282.457 272 282.518 271.925 282.574C271.86 282.639 271.808 282.672 271.771 282.672C271.444 282.653 271.164 282.639 270.931 282.63C270.698 282.63 270.45 282.63 270.189 282.63C269.928 282.639 269.592 282.653 269.181 282.672C268.705 282.691 268.229 282.705 267.753 282.714C267.277 282.723 266.81 282.728 266.353 282.728Z" fill="black"/>
<path d="M127.966 200.4L132.766 238.26C132.826 239.1 132.226 239.94 131.386 240C130.486 240.12 129.706 239.52 129.586 238.68L124.846 200.76C124.726 199.56 123.706 199.32 123.406 199.26C123.106 199.2 122.026 199.14 121.546 200.28L106.726 239.04C106.666 239.1 106.666 239.16 106.606 239.22C106.546 239.34 106.486 239.4 106.366 239.52C106.366 239.58 106.306 239.58 106.246 239.64C106.126 239.76 106.066 239.82 105.886 239.88L105.826 239.94H105.766C105.586 240 105.406 240.06 105.226 240.06C105.106 240.06 104.926 240 104.746 239.94H104.686L104.626 239.88C104.446 239.82 104.386 239.76 104.266 239.64C104.206 239.58 104.146 239.58 104.146 239.52C104.026 239.4 103.966 239.34 103.906 239.22C103.846 239.16 103.846 239.1 103.786 239.04L88.9664 200.16C88.4864 199.14 87.4064 199.2 87.1064 199.26C86.8064 199.32 85.7864 199.56 85.6664 200.76L80.9264 238.62C80.8064 239.52 80.0264 240.12 79.1864 240C78.2864 239.88 77.6864 239.1 77.8064 238.26L82.5464 200.4C82.7864 198.18 84.4664 196.5 86.6264 196.14C88.8464 195.78 90.9464 196.92 91.8464 198.96L105.286 234.06L118.606 199.02C119.566 196.92 121.726 195.78 123.886 196.14C126.046 196.5 127.726 198.18 127.966 200.4ZM167.783 231.36C168.503 231.66 168.923 232.44 168.623 233.22C167.183 237.3 163.283 240 158.963 240H146.543C140.843 240 136.283 235.44 136.283 229.74V222.24C136.283 216.54 140.843 211.98 146.543 211.98H158.963C164.603 211.98 169.223 216.54 169.223 222.24C169.223 224.64 167.243 226.62 164.843 226.62H139.103V229.74C139.103 233.82 142.463 237.18 146.543 237.18H158.963C162.083 237.18 164.903 235.2 165.923 232.26C166.223 231.48 167.063 231.12 167.783 231.36ZM139.103 222.24V223.74H164.843C165.683 223.74 166.403 223.08 166.403 222.24C166.403 218.16 163.043 214.8 158.963 214.8H146.543C142.463 214.8 139.103 218.16 139.103 222.24ZM196.954 206.1C197.854 206.1 198.574 206.82 198.574 207.66V238.44C198.574 239.34 197.854 240 196.954 240C196.114 240 195.394 239.34 195.394 238.44V207.66C195.394 206.82 196.114 206.1 196.954 206.1ZM216.574 196.08C217.414 196.08 218.134 196.8 218.134 197.64C218.134 198.54 217.414 199.26 216.574 199.26H177.394C176.494 199.26 175.834 198.54 175.834 197.64C175.834 196.8 176.494 196.08 177.394 196.08H216.574ZM215.886 211.98C216.726 211.98 217.326 212.58 217.326 213.36V238.62C217.326 239.4 216.726 240 215.886 240C215.106 240 214.506 239.4 214.506 238.62V213.36C214.506 212.58 215.106 211.98 215.886 211.98ZM215.886 202.08C216.726 202.08 217.326 202.74 217.326 203.52V207.24C217.326 208.02 216.726 208.68 215.886 208.68C215.106 208.68 214.506 208.02 214.506 207.24V203.52C214.506 202.74 215.106 202.08 215.886 202.08ZM265.279 211.98C270.979 211.98 275.539 216.54 275.539 222.24V238.62C275.539 239.4 274.939 240 274.159 240C273.319 240 272.719 239.4 272.719 238.62V222.24C272.719 218.16 269.359 214.8 265.279 214.8H262.639C256.339 214.8 251.179 219.96 251.179 226.26V238.62C251.179 239.4 250.519 240 249.739 240C248.959 240 248.299 239.4 248.299 238.62V222.24C248.299 218.16 244.999 214.8 240.859 214.8H238.219C231.919 214.8 226.759 219.96 226.759 226.26V238.62C226.759 239.4 226.159 240 225.319 240C224.539 240 223.939 239.4 223.939 238.62V213.36C223.939 212.58 224.539 211.98 225.319 211.98C226.159 211.98 226.759 212.58 226.759 213.36V217.74C229.399 214.2 233.539 211.98 238.219 211.98H240.859C245.299 211.98 249.079 214.74 250.519 218.64C253.039 214.62 257.539 211.98 262.639 211.98H265.279ZM313.623 231.36C314.343 231.66 314.763 232.44 314.463 233.22C313.023 237.3 309.123 240 304.803 240H292.383C286.683 240 282.123 235.44 282.123 229.74V222.24C282.123 216.54 286.683 211.98 292.383 211.98H304.803C310.443 211.98 315.063 216.54 315.063 222.24C315.063 224.64 313.083 226.62 310.683 226.62H284.943V229.74C284.943 233.82 288.303 237.18 292.383 237.18H304.803C307.923 237.18 310.743 235.2 311.763 232.26C312.063 231.48 312.903 231.12 313.623 231.36ZM284.943 222.24V223.74H310.683C311.523 223.74 312.243 223.08 312.243 222.24C312.243 218.16 308.883 214.8 304.803 214.8H292.383C288.303 214.8 284.943 218.16 284.943 222.24Z" fill="black"/>
<path d="M238.857 30.0259V7.56303C238.855 5.55789 238.057 3.63554 236.639 2.21769C235.222 0.799846 233.299 0.00229361 231.294 0H160.706C158.701 0.00229361 156.778 0.799846 155.361 2.21769C153.943 3.63554 153.145 5.55789 153.143 7.56303V30.2521C153.146 31.4257 153.42 32.5827 153.945 33.6324C154.47 34.682 155.231 35.5959 156.168 36.3023L191.798 63.0252L156.168 89.7481C155.231 90.4545 154.47 91.3684 153.945 92.4181C153.42 93.4678 153.146 94.6247 153.143 95.7983V118.487C153.145 120.493 153.943 122.415 155.361 123.833C156.778 125.251 158.701 126.048 160.706 126.05H231.294C233.299 126.048 235.222 125.251 236.639 123.833C238.057 122.415 238.855 120.493 238.857 118.487V96.0245C238.854 94.8558 238.582 93.7034 238.061 92.6571C237.54 91.6107 236.785 90.6985 235.855 89.9913L200.181 63.0252L235.855 36.0592C236.785 35.352 237.54 34.4397 238.061 33.3934C238.582 32.347 238.854 31.1947 238.857 30.0259ZM233.815 96.0245V118.487C233.814 119.156 233.548 119.797 233.076 120.269C232.603 120.742 231.962 121.008 231.294 121.008H160.706C160.037 121.008 159.397 120.742 158.924 120.269C158.451 119.797 158.186 119.156 158.185 118.487V95.7983C158.186 95.4071 158.277 95.0214 158.452 94.6715C158.627 94.3216 158.881 94.0169 159.193 93.7814L195.994 66.1808L232.814 94.0131C233.124 94.2489 233.376 94.5531 233.55 94.9019C233.723 95.2507 233.814 95.6349 233.815 96.0245ZM233.815 30.0259C233.814 30.4155 233.723 30.7996 233.55 31.1484C233.376 31.4972 233.124 31.8013 232.814 32.037L195.994 59.8696L159.193 32.269C158.881 32.0334 158.627 31.7288 158.452 31.3788C158.277 31.0289 158.186 30.6433 158.185 30.2521V7.56303C158.186 6.89465 158.451 6.25386 158.924 5.78125C159.397 5.30863 160.037 5.04278 160.706 5.04202H231.294C231.962 5.04278 232.603 5.30863 233.076 5.78125C233.548 6.25386 233.814 6.89465 233.815 7.56303V30.0259Z" fill="black"/>
<path d="M171 21.4761V46.4761H171.042L171 46.5177L187.667 63.1427L171 79.8094L171.042 79.8511H171V104.809H221V79.8511H220.958L221 79.8094L204.333 63.1427L221 46.5177L220.958 46.4761H221V21.4761H171Z" fill="black"/>
</svg>
