<svg width="29" height="29" viewBox="0 0 29 29" fill="none" xmlns="http://www.w3.org/2000/svg">
<g clip-path="url(#clip0_14_68)">
<path d="M14.6915 18.1008C16.6624 18.1008 18.2602 16.5049 18.2602 14.5363C18.2602 12.5678 16.6624 10.9719 14.6915 10.9719C12.7205 10.9719 11.1227 12.5678 11.1227 14.5363C11.1227 16.5049 12.7205 18.1008 14.6915 18.1008Z" stroke="black" stroke-width="2" stroke-linecap="round" stroke-linejoin="round"/>
<path d="M23.4944 18.1008C23.3361 18.4592 23.2888 18.8567 23.3588 19.2421C23.4288 19.6275 23.6128 19.9832 23.887 20.2632L23.9584 20.3345C24.1796 20.5552 24.3551 20.8173 24.4748 21.1058C24.5945 21.3942 24.6562 21.7035 24.6562 22.0157C24.6562 22.328 24.5945 22.6372 24.4748 22.9257C24.3551 23.2142 24.1796 23.4763 23.9584 23.697C23.7374 23.9179 23.475 24.0932 23.1862 24.2128C22.8974 24.3324 22.5878 24.3939 22.2751 24.3939C21.9624 24.3939 21.6528 24.3324 21.364 24.2128C21.0752 24.0932 20.8128 23.9179 20.5918 23.697L20.5205 23.6257C20.2401 23.3518 19.884 23.168 19.4981 23.0981C19.1122 23.0283 18.7142 23.0754 18.3554 23.2336C18.0036 23.3842 17.7035 23.6343 17.4921 23.9531C17.2808 24.2718 17.1673 24.6454 17.1658 25.0277V25.2297C17.1658 25.8599 16.9151 26.4643 16.469 26.91C16.0228 27.3556 15.4176 27.606 14.7866 27.606C14.1556 27.606 13.5505 27.3556 13.1043 26.91C12.6581 26.4643 12.4074 25.8599 12.4074 25.2297V25.1227C12.3982 24.7295 12.2708 24.3481 12.0417 24.0281C11.8125 23.7081 11.4923 23.4644 11.1227 23.3286C10.7639 23.1705 10.3659 23.1233 9.97998 23.1932C9.59408 23.2631 9.23799 23.4468 8.95763 23.7207L8.88625 23.792C8.66529 24.013 8.4029 24.1882 8.11407 24.3078C7.82524 24.4274 7.51564 24.489 7.20298 24.489C6.89032 24.489 6.58073 24.4274 6.2919 24.3078C6.00307 24.1882 5.74067 24.013 5.51971 23.792C5.2985 23.5713 5.12302 23.3092 5.00329 23.0208C4.88356 22.7323 4.82193 22.4231 4.82193 22.1108C4.82193 21.7985 4.88356 21.4893 5.00329 21.2008C5.12302 20.9123 5.2985 20.6503 5.51971 20.4296L5.59109 20.3583C5.86533 20.0782 6.0493 19.7226 6.11927 19.3372C6.18924 18.9517 6.142 18.5542 5.98365 18.1958C5.83286 17.8444 5.58247 17.5447 5.26331 17.3336C4.94416 17.1225 4.57016 17.0092 4.18737 17.0077H3.98514C3.35414 17.0077 2.74899 16.7573 2.3028 16.3117C1.85662 15.866 1.60596 15.2616 1.60596 14.6314C1.60596 14.0012 1.85662 13.3967 2.3028 12.9511C2.74899 12.5055 3.35414 12.2551 3.98514 12.2551H4.0922C4.48595 12.2459 4.86782 12.1186 5.18817 11.8898C5.50852 11.6609 5.75253 11.3411 5.88848 10.9719C6.04684 10.6135 6.09407 10.216 6.0241 9.83057C5.95413 9.44514 5.77016 9.08949 5.49592 8.80946L5.42454 8.73818C5.20334 8.51748 5.02785 8.2554 4.90812 7.96693C4.78839 7.67845 4.72676 7.36923 4.72676 7.05695C4.72676 6.74466 4.78839 6.43544 4.90812 6.14696C5.02785 5.85849 5.20334 5.59641 5.42454 5.37571C5.64551 5.15477 5.9079 4.9795 6.19673 4.85992C6.48556 4.74033 6.79515 4.67878 7.10782 4.67878C7.42048 4.67878 7.73007 4.74033 8.0189 4.85992C8.30773 4.9795 8.57012 5.15477 8.79109 5.37571L8.86246 5.447C9.14282 5.72092 9.49891 5.90466 9.88481 5.97455C10.2707 6.04443 10.6687 5.99725 11.0275 5.83909H11.1227C11.4745 5.68848 11.7746 5.4384 11.986 5.11963C12.1973 4.80086 12.3107 4.42732 12.3123 4.04499V3.843C12.3123 3.21277 12.5629 2.60835 13.0091 2.16271C13.4553 1.71706 14.0605 1.46671 14.6915 1.46671C15.3225 1.46671 15.9276 1.71706 16.3738 2.16271C16.82 2.60835 17.0706 3.21277 17.0706 3.843V3.94994C17.0722 4.33227 17.1856 4.70581 17.397 5.02458C17.6083 5.34334 17.9084 5.59343 18.2602 5.74404C18.619 5.9022 19.017 5.94938 19.4029 5.8795C19.7888 5.80961 20.1449 5.62586 20.4253 5.35195L20.4967 5.28066C20.7176 5.05972 20.98 4.88445 21.2688 4.76486C21.5577 4.64528 21.8673 4.58373 22.1799 4.58373C22.4926 4.58373 22.8022 4.64528 23.091 4.76486C23.3798 4.88445 23.6422 5.05972 23.8632 5.28066C24.0844 5.50136 24.2599 5.76344 24.3796 6.05191C24.4994 6.34039 24.561 6.64961 24.561 6.96189C24.561 7.27418 24.4994 7.5834 24.3796 7.87187C24.2599 8.16035 24.0844 8.42243 23.8632 8.64312L23.7918 8.71441C23.5176 8.99443 23.3336 9.35009 23.2636 9.73552C23.1937 10.121 23.2409 10.5185 23.3993 10.8768V10.9719C23.5501 11.3233 23.8004 11.623 24.1196 11.8341C24.4388 12.0452 24.8128 12.1585 25.1955 12.16H25.3978C26.0288 12.16 26.6339 12.4104 27.0801 12.856C27.5263 13.3017 27.777 13.9061 27.777 14.5363C27.777 15.1666 27.5263 15.771 27.0801 16.2166C26.6339 16.6623 26.0288 16.9126 25.3978 16.9126H25.2907C24.9079 16.9142 24.5339 17.0275 24.2148 17.2386C23.8956 17.4497 23.6452 17.7494 23.4944 18.1008Z" stroke="black" stroke-width="2" stroke-linecap="round" stroke-linejoin="round"/>
</g>
<defs>
<clipPath id="clip0_14_68">
<rect width="28.5502" height="28.5156" fill="white" transform="translate(0.416382 0.278564)"/>
</clipPath>
</defs>
</svg>
