<svg width="30" height="29" viewBox="0 0 30 29" fill="none" xmlns="http://www.w3.org/2000/svg">
<path d="M25.9338 19.1582C25.177 20.9458 23.9933 22.521 22.4862 23.746C20.9791 24.9711 19.1945 25.8088 17.2884 26.1859C15.3823 26.563 13.4127 26.4679 11.5518 25.9091C9.69099 25.3502 7.99553 24.3446 6.6137 22.9801C5.23186 21.6156 4.20572 19.9338 3.62499 18.0817C3.04425 16.2296 2.92661 14.2637 3.28234 12.3557C3.63807 10.4477 4.45635 8.65576 5.66563 7.13659C6.8749 5.61743 8.43837 4.41726 10.2193 3.64102" stroke="black" stroke-width="2" stroke-linecap="round" stroke-linejoin="round"/>
<path d="M26.8737 14.5364C26.8737 12.9761 26.566 11.431 25.9682 9.98952C25.3703 8.54799 24.4941 7.23818 23.3895 6.13488C22.2848 5.03159 20.9734 4.1564 19.5302 3.5593C18.0869 2.9622 16.54 2.65488 14.9778 2.65488V14.5364H26.8737Z" stroke="black" stroke-width="2" stroke-linecap="round" stroke-linejoin="round"/>
</svg>
